<svg xmlns="http://www.w3.org/2000/svg" viewBox="0 0 24 24" class="styles__input-icon--3JyvX">
  <path fill-rule="evenodd" clip-rule="evenodd" d="M5.562 4.172a1 1 0 00-1.27 1.535l1.385 1.384C4.044 8.321 2.773 10.021 2 12c1.6 4.097 5.336 7 10 7 1.656 0 3.196-.366 4.564-1.022l1.729 1.73a1 1 0 001.535-1.27L5.562 4.172zM7.5 12c0-.88.253-1.702.69-2.396l1.482 1.482a2.5 2.5 0 003.241 3.241l1.483 1.483A4.5 4.5 0 017.5 12z"/>
  <path d="M19.79 15.573A11.471 11.471 0 0022 12c-1.6-4.097-5.336-7-10-7-.866 0-1.7.1-2.493.289l2.219 2.22a4.5 4.5 0 014.766 4.766l3.299 3.298z"/>
</svg>
